<?xml version="1.0" encoding="utf-8"?>
<!-- Generator: Adobe Illustrator 15.1.0, SVG Export Plug-In . SVG Version: 6.00 Build 0)  -->
<!DOCTYPE svg PUBLIC "-//W3C//DTD SVG 1.1//EN" "http://www.w3.org/Graphics/SVG/1.1/DTD/svg11.dtd">
<svg version="1.1" id="Layer_1" xmlns="http://www.w3.org/2000/svg" xmlns:xlink="http://www.w3.org/1999/xlink" x="0px" y="0px"
	 width="52.113px" height="30.187px" viewBox="0 0 52.113 30.187" enable-background="new 0 0 52.113 30.187" xml:space="preserve">
<g>
	<path d="M47.786,23.655v6.531h4.267V19.649H4.241V2.139C4.241,0.96,3.301,0,2.11,0C0.94,0,0,0.96,0,2.139v28.048h4.241v-6.531
		H47.786z"/>
	<path d="M10.386,13.27c2.117,0,3.84-1.706,3.84-3.844c0-2.125-1.717-3.83-3.84-3.83c-2.128,0-3.845,1.706-3.845,3.83
		C6.541,11.563,8.258,13.27,10.386,13.27"/>
	<path d="M52.113,17.883l-0.015-5.289c-0.014-1.676-1.418-2.836-3.059-3.035H15.908v4.542H7.34c-1.058,0-1.903,0.853-1.903,1.894
		c0,1.052,0.846,1.891,1.903,1.891h44.773V17.883z"/>
</g>
</svg>
