<?xml version="1.0" encoding="utf-8"?>
<!-- Generator: Adobe Illustrator 15.1.0, SVG Export Plug-In . SVG Version: 6.00 Build 0)  -->
<!DOCTYPE svg PUBLIC "-//W3C//DTD SVG 1.1//EN" "http://www.w3.org/Graphics/SVG/1.1/DTD/svg11.dtd">
<svg version="1.1" id="Layer_1" xmlns="http://www.w3.org/2000/svg" xmlns:xlink="http://www.w3.org/1999/xlink" x="0px" y="0px"
	 width="34.718px" height="20.354px" viewBox="0 0 34.718 20.354" enable-background="new 0 0 34.718 20.354" xml:space="preserve">
<path d="M28.704,7.417c-0.822,0-1.609,0.179-2.324,0.503c-1.158-2.252-2.255-4.396-2.416-4.746c-0.312-0.68-0.179-1.197,0.135-1.667
	c0.176-0.264,0.354-0.454,0.354-0.832c0.001-0.372-0.302-0.677-0.649-0.677h-6.127c-0.349,0-0.629,0.305-0.629,0.677
	c0,0.374,0.28,0.677,0.629,0.677h4.473c0.439,0,0.511,0.27,0.369,0.589C22.377,2.263,22.307,3,22.553,3.417
	c0.098,0.162,0.021,0.438-0.176,0.438H11.282c-0.273,0-0.434-0.146-0.486-0.257c-0.086-0.163-0.165-0.318-0.262-0.504
	c-0.139-0.265-0.164-0.507,0.251-0.572c0.553-0.084,0.903-0.141,1.423-0.229c0.584-0.103,0.475-0.897-0.018-0.897H7.462
	c-0.35,0-0.614,0.229-0.614,0.682c0,0.452-0.018,0.926,0.51,0.926c0.316,0,1.021-0.112,1.213-0.15
	C8.764,2.815,8.938,2.85,9.012,2.97C9.125,3.155,9.264,3.439,9.36,3.622C9.422,3.74,9.458,3.947,9.356,4.197
	c-0.09,0.222-0.732,1.768-1.469,3.547C7.296,7.534,6.667,7.422,6.01,7.422C2.692,7.422,0,10.318,0,13.886
	c0,3.574,2.692,6.469,6.011,6.469c3.108,0,5.666-2.537,5.979-5.791h1.153c0.209,1.197,1.185,2.103,2.356,2.103
	c1.323,0,2.396-1.152,2.396-2.576c0-0.39-0.078-0.754-0.221-1.084c0.943-0.767,4.336-3.557,6.514-5.352
	c0.242-0.198,0.599-0.104,0.722,0.139c0,0,0.194,0.375,0.396,0.761c-1.609,1.191-2.607,3.152-2.607,5.335
	c0,3.572,2.689,6.467,6.01,6.467s6.012-2.895,6.012-6.467C34.715,10.313,32.024,7.417,28.704,7.417z M8.452,9.679
	c1.133,0.764,1.936,2.041,2.123,3.527c-1.146-0.002-2.372-0.002-3.252-0.002c-0.217,0-0.282-0.148-0.215-0.298
	C7.33,12.378,7.878,11.055,8.452,9.679z M6.01,18.841c-2.546,0-4.607-2.221-4.607-4.959c0-2.736,2.062-4.956,4.607-4.956
	c0.452,0,0.889,0.071,1.301,0.201c-0.877,2.118-1.729,4.176-1.856,4.479c-0.038,0.088-0.063,0.187-0.063,0.275
	c-0.009,0.373,0.273,0.678,0.619,0.678h4.565C10.268,16.977,8.341,18.841,6.01,18.841z M13.245,13.206h-1.256
	c-0.202-2.103-1.342-3.902-2.961-4.915c0.515-1.237,0.957-2.306,1.078-2.598C10.2,5.468,10.303,5.5,10.403,5.696
	c1.228,2.436,2.81,5.533,3.356,6.611C13.535,12.563,13.358,12.868,13.245,13.206z M15.5,15.311c-0.632,0-1.144-0.551-1.144-1.229
	c0-0.681,0.512-1.23,1.144-1.23c0.63,0,1.142,0.551,1.142,1.23C16.641,14.761,16.129,15.311,15.5,15.311z M23.676,6.376
	c-0.559,0.462-6.812,5.585-6.812,5.585c-0.387-0.287-0.857-0.459-1.364-0.459c-0.231,0-0.452,0.035-0.663,0.1
	c-0.311-0.611-1.011-2.002-3.062-6.048c-0.109-0.214-0.066-0.348,0.351-0.348H23.25c0.269,0,0.38,0.077,0.459,0.23
	c0.056,0.109,0.129,0.229,0.129,0.229C23.961,5.909,23.924,6.171,23.676,6.376z M28.704,18.841c-2.543,0-4.605-2.221-4.605-4.959
	c0-1.642,0.74-3.092,1.883-3.994c1.031,1.97,1.951,3.839,2.189,4.298c0.166,0.326,0.549,0.447,0.854,0.269
	c0.303-0.183,0.414-0.593,0.248-0.918c-0.16-0.316-1.133-2.203-2.205-4.284c0.51-0.209,1.062-0.325,1.641-0.325
	c2.547,0,4.609,2.22,4.609,4.957C33.313,16.62,31.249,18.841,28.704,18.841z"/>
</svg>
