<?xml version="1.0" encoding="utf-8"?>
<!-- Generator: Adobe Illustrator 15.1.0, SVG Export Plug-In . SVG Version: 6.00 Build 0)  -->
<!DOCTYPE svg PUBLIC "-//W3C//DTD SVG 1.1//EN" "http://www.w3.org/Graphics/SVG/1.1/DTD/svg11.dtd">
<svg version="1.1" id="Layer_1" xmlns="http://www.w3.org/2000/svg" xmlns:xlink="http://www.w3.org/1999/xlink" x="0px" y="0px"
	 width="19.921px" height="29.529px" viewBox="0 0 19.921 29.529" enable-background="new 0 0 19.921 29.529" xml:space="preserve">
<g>
	<path d="M16.784,14.868c-0.116-1.561-0.75-2.957-1.715-4.041c-1.542-1.737-2.177-3.543-2.177-6.821
		c-0.935,1.064-1.294,2.062-1.605,3.075c0.044,1.515,0.161,3.029,0.477,4.512c0.206,0.959,0.45,1.91,0.788,2.832
		c0.341,0.932,0.871,1.857,1.047,2.843c0.332,1.853-0.496,3.273-1.504,4.643c0.281-0.092,0.541-0.205,0.769-0.344
		C14.525,20.57,17.002,17.784,16.784,14.868z"/>
	<path d="M11.328,22.096c0.42-0.542,0.832-1.088,1.182-1.674c1.058-1.776,0.565-3.217-0.14-5.027
		c-1.118-2.878-1.518-5.816-1.604-8.857C10.28,4.155,9.351,1.948,8.067,0c0.087,0.456,0.149,1.481,0.187,1.954
		c0.222,2.996-0.366,5.13-2.293,7.749c0.832,2.658,2.238,4.866,2.864,7.613c0.371,1.635,0.451,3.246,0.334,4.854
		C9.88,22.248,10.638,22.222,11.328,22.096z"/>
	<path d="M8.118,16.651C7.427,14.353,5.03,9.133,4.28,6.879c0,1.793-0.181,3.294-0.355,4.016c-0.416,1.73-0.801,3.527-0.801,4.992
		c0,2.543,2.399,4.807,3.888,5.661c0.451,0.26,1.028,0.444,1.651,0.554C8.795,20.282,8.663,18.465,8.118,16.651z"/>
	<polygon points="19.074,29.529 18.825,29.456 0.25,24.139 0,24.069 0.072,23.818 0.776,21.356 0.848,21.108 1.097,21.179 
		19.672,26.494 19.921,26.566 19.85,26.815 19.146,29.278 	"/>
	<polygon points="18.896,21.427 10.905,23.716 15.559,25.047 19.602,23.888 	"/>
	<polygon points="0.321,26.745 1.025,29.206 9.018,26.918 4.364,25.587 	"/>
</g>
</svg>
