<?xml version="1.0" encoding="utf-8"?>
<!-- Generator: Adobe Illustrator 15.1.0, SVG Export Plug-In . SVG Version: 6.00 Build 0)  -->
<!DOCTYPE svg PUBLIC "-//W3C//DTD SVG 1.1//EN" "http://www.w3.org/Graphics/SVG/1.1/DTD/svg11.dtd">
<svg version="1.1" id="Layer_1" xmlns="http://www.w3.org/2000/svg" xmlns:xlink="http://www.w3.org/1999/xlink" x="0px" y="0px"
	 width="29.997px" height="28.526px" viewBox="0 0 29.997 28.526" enable-background="new 0 0 29.997 28.526" xml:space="preserve">
<g>
	<path d="M18.076,19.166c0.78,0,1.403-0.634,1.403-1.413c0-0.775-0.623-1.4-1.403-1.4c-0.782,0-1.41,0.625-1.41,1.4
		C16.666,18.532,17.293,19.166,18.076,19.166 M29.997,28.52c-7.132,0.108-14.584-1.375-20.286-6.369l-0.052-0.139
		c0-0.121,0.085-0.213,0.192-0.213l5.803-1.027l-5.082-2.646c-0.093-0.062-0.161-0.18-0.161-0.312c0-0.098,0.037-0.188,0.092-0.253
		c0,0,6.196-5.969,19.493-5.833L29.997,28.52L29.997,28.52z"/>
	<path d="M7.146,19.866l-2.453-3.209L4.01,20.993c0,0,0.717-0.508,0.954-0.671c0.05,0.215,0.119,0.494,0.119,0.494
		c0.007,0.451-0.189,0.869-0.505,1.162c-0.277,0.257-0.645,0.412-1.05,0.425c-0.419,0.006-0.815-0.154-1.115-0.45
		c-0.299-0.295-0.472-0.689-0.479-1.106l0.041-4.566c0,0,0.022-4.123,0.027-5.131h0.012v-0.186c0.5-0.221,0.849-0.721,0.849-1.304
		c0-0.585-0.35-1.083-0.849-1.306V0H0.874v8.339C0.361,8.557,0,9.065,0,9.659c0,0.593,0.361,1.101,0.874,1.316v0.174h0.004
		c-0.007,0.982-0.049,5.312-0.049,5.312l-0.057,4.345l-0.006,0.048c0.022,1.512,1.26,2.732,2.774,2.718
		c1.51-0.022,2.728-1.271,2.708-2.744c0.006-0.018,0.047-0.345-0.105-0.86L7.146,19.866z"/>
</g>
</svg>
