<?xml version="1.0" encoding="utf-8"?>
<!-- Generator: Adobe Illustrator 15.1.0, SVG Export Plug-In . SVG Version: 6.00 Build 0)  -->
<!DOCTYPE svg PUBLIC "-//W3C//DTD SVG 1.1//EN" "http://www.w3.org/Graphics/SVG/1.1/DTD/svg11.dtd">
<svg version="1.1" id="Layer_1" xmlns="http://www.w3.org/2000/svg" xmlns:xlink="http://www.w3.org/1999/xlink" x="0px" y="0px"
	 width="17.612px" height="30.114px" viewBox="0 0 17.612 30.114" enable-background="new 0 0 17.612 30.114" xml:space="preserve">
<path d="M9.791,27.002c-0.534-0.101-1.046-0.307-1.539-0.615S7.4,25.659,7.175,25.125c-0.042-0.122-0.124-0.39-0.247-0.801v-8.343
	H6.282v8.252c0,0.041-0.032,0.164-0.093,0.368c-0.062,0.206-0.113,0.349-0.154,0.433c-0.267,0.594-0.656,1.072-1.171,1.43
	c-0.512,0.36-1.087,0.539-1.723,0.539c-0.474,0-0.899-0.086-1.278-0.26c-0.38-0.176-0.708-0.411-0.985-0.71
	c-0.277-0.297-0.491-0.646-0.646-1.046C0.077,24.586,0,24.161,0,23.709c0-0.432,0.077-0.838,0.231-1.217
	c0.155-0.381,0.369-0.719,0.646-1.017c0.277-0.297,0.605-0.528,0.985-0.692c0.379-0.164,0.784-0.247,1.217-0.247
	c0.286,0,0.569,0.053,0.846,0.155c0.277,0.102,0.527,0.153,0.755,0.153v-8.097L6.128,0.34C6.17,0.176,6.23,0.078,6.312,0.046
	C6.395,0.017,6.486,0,6.59,0h0.246c0.103,0.083,0.169,0.176,0.2,0.277c0.031,0.104,0.046,0.206,0.046,0.308l1.416,12.224v8.036
	c0.247,0,0.509-0.052,0.785-0.153c0.277-0.103,0.58-0.155,0.908-0.155c0.432,0,0.836,0.088,1.217,0.262
	c0.38,0.175,0.708,0.411,0.985,0.709c0.276,0.298,0.492,0.642,0.646,1.032c0.154,0.389,0.232,0.801,0.232,1.23
	c0,0.656-0.154,1.227-0.463,1.709c-0.307,0.482-0.739,0.877-1.292,1.186c-0.041,0.145-0.068,0.267-0.079,0.369
	c-0.009,0.104-0.014,0.237-0.014,0.4c0,0.227,0.034,0.42,0.107,0.585c0.071,0.165,0.143,0.319,0.216,0.462
	c0.071,0.145,0.143,0.288,0.215,0.431c0.071,0.144,0.107,0.299,0.107,0.462c0,0.185-0.07,0.354-0.215,0.508
	c-0.145,0.154-0.308,0.232-0.492,0.232c-0.309,0-0.561-0.124-0.754-0.369c-0.196-0.247-0.351-0.539-0.463-0.879
	c-0.112-0.338-0.195-0.682-0.245-1.031C9.847,27.487,9.812,27.208,9.791,27.002z M1.571,23.739c0,0.432,0.143,0.812,0.432,1.141
	c0.286,0.328,0.665,0.492,1.139,0.492c0.45,0,0.82-0.164,1.108-0.492c0.286-0.328,0.431-0.709,0.431-1.141
	c0-0.43-0.145-0.801-0.431-1.107c-0.288-0.309-0.658-0.463-1.108-0.463c-0.474,0-0.853,0.154-1.139,0.463
	C1.714,22.938,1.571,23.309,1.571,23.739z M8.59,23.739c0,0.432,0.144,0.812,0.432,1.141c0.287,0.328,0.646,0.492,1.077,0.492
	c0.473,0,0.857-0.159,1.155-0.478s0.446-0.702,0.446-1.155c0-0.451-0.145-0.825-0.431-1.124c-0.287-0.297-0.667-0.446-1.139-0.446
	c-0.452,0-0.822,0.149-1.109,0.446C8.733,22.914,8.59,23.288,8.59,23.739z M14.995,17.057h-4.649c-0.021,0-0.056-0.035-0.107-0.107
	c-0.052-0.07-0.099-0.128-0.14-0.169c-0.02-0.021-0.03-0.04-0.03-0.062v-0.062v-0.153V16.35c0-0.062,0.011-0.113,0.03-0.154
	c0.041-0.04,0.088-0.097,0.14-0.17c0.052-0.07,0.086-0.107,0.107-0.107h4.589v-0.553h-4.343c-0.164,0-0.293-0.066-0.385-0.201
	c-0.092-0.133-0.139-0.271-0.139-0.416v-0.154c0-0.081,0.011-0.133,0.03-0.154c0.041-0.039,0.088-0.102,0.14-0.184
	s0.086-0.123,0.107-0.123h4.589v-0.555h-4.343c-0.185,0-0.318-0.057-0.4-0.17c-0.082-0.111-0.123-0.25-0.123-0.416
	c0-0.102,0.021-0.229,0.062-0.384c0.039-0.154,0.133-0.23,0.276-0.23h4.527v-0.556h-4.373c-0.186,0-0.313-0.065-0.384-0.199
	c-0.073-0.134-0.109-0.271-0.109-0.415c0-0.082,0.021-0.2,0.062-0.354c0.039-0.154,0.133-0.23,0.276-0.23h4.527v-0.555h-4.373
	c-0.186,0-0.313-0.077-0.384-0.231c-0.073-0.153-0.109-0.292-0.109-0.415c0-0.103,0.03-0.227,0.092-0.369
	c0.062-0.145,0.145-0.215,0.247-0.215h4.527V8.283h-4.466c-0.164,0-0.271-0.071-0.323-0.216c-0.052-0.143-0.077-0.267-0.077-0.369
	s0.025-0.235,0.077-0.399c0.052-0.165,0.159-0.247,0.323-0.247h4.466V6.528h-4.373c-0.186,0-0.313-0.072-0.384-0.216
	c-0.073-0.143-0.109-0.287-0.109-0.431c0-0.082,0.021-0.199,0.062-0.354c0.039-0.154,0.113-0.232,0.215-0.232h4.589V4.743h-4.373
	c-0.205,0-0.339-0.072-0.401-0.216c-0.062-0.145-0.092-0.287-0.092-0.431c0-0.104,0.017-0.216,0.047-0.339
	c0.03-0.124,0.129-0.186,0.292-0.186h4.527V2.987h-4.343c-0.205,0-0.344-0.066-0.414-0.2c-0.073-0.133-0.109-0.282-0.109-0.446
	c0-0.081,0.017-0.205,0.047-0.369s0.107-0.246,0.23-0.246h4.589V1.17h-4.589c-0.123,0-0.2-0.082-0.23-0.246s-0.047-0.278-0.047-0.34
	c0-0.102,0.017-0.225,0.047-0.37C10.146,0.073,10.244,0,10.407,0h5.851c0.143,0,0.293,0.051,0.446,0.154
	c0.154,0.103,0.297,0.23,0.431,0.385c0.133,0.154,0.246,0.313,0.338,0.478c0.093,0.165,0.14,0.318,0.14,0.462V28.79
	c0,0.35-0.153,0.59-0.462,0.723c-0.309,0.135-0.586,0.201-0.83,0.201c-0.289,0-0.582-0.094-0.879-0.277
	c-0.298-0.186-0.446-0.463-0.446-0.832V17.057z"/>
</svg>
