<?xml version="1.0" encoding="utf-8"?>
<!-- Generator: Adobe Illustrator 15.1.0, SVG Export Plug-In . SVG Version: 6.00 Build 0)  -->
<!DOCTYPE svg PUBLIC "-//W3C//DTD SVG 1.1//EN" "http://www.w3.org/Graphics/SVG/1.1/DTD/svg11.dtd">
<svg version="1.1" id="Layer_1" xmlns="http://www.w3.org/2000/svg" xmlns:xlink="http://www.w3.org/1999/xlink" x="0px" y="0px"
	 width="15.581px" height="28.451px" viewBox="0 0 15.581 28.451" enable-background="new 0 0 15.581 28.451" xml:space="preserve">
<path d="M0,9.083c0-0.801,0.169-1.55,0.509-2.248C0.847,6.138,1.344,5.553,2.002,5.08c0.021-0.02,0.082-0.061,0.185-0.123
	C2.289,4.896,2.392,4.84,2.495,4.788c0.102-0.051,0.194-0.103,0.277-0.154c0.08-0.052,0.122-0.098,0.122-0.139
	C2.997,4.25,3.058,3.988,3.079,3.711c0.02-0.277,0.093-0.539,0.216-0.786c0.39-0.903,0.994-1.616,1.816-2.14
	C5.932,0.262,6.835,0,7.822,0c0.964,0,1.836,0.256,2.617,0.771c0.779,0.512,1.374,1.2,1.785,2.062
	c0.123,0.267,0.206,0.539,0.247,0.817c0.04,0.277,0.112,0.559,0.215,0.846c0.041,0.062,0.179,0.16,0.415,0.293
	c0.237,0.134,0.406,0.231,0.508,0.292c0.657,0.473,1.149,1.058,1.479,1.755c0.327,0.698,0.493,1.447,0.493,2.248
	c0,1.396-0.534,2.597-1.601,3.603c-0.062,0.042-0.144,0.098-0.248,0.169c-0.102,0.071-0.206,0.138-0.308,0.2
	c-0.103,0.062-0.236,0.153-0.4,0.277L8.375,28.05c-0.062,0.267-0.225,0.401-0.492,0.401c-0.247,0-0.4-0.113-0.462-0.34L2.772,13.486
	c0-0.02-0.011-0.041-0.031-0.062c-0.863-0.532-1.535-1.134-2.017-1.8C0.242,10.957,0,10.11,0,9.083z M1.17,9.021
	c0,0.658,0.149,1.268,0.447,1.832c0.297,0.565,0.744,1.022,1.34,1.371c0.04,0,0.111,0.031,0.215,0.092h9.206
	c0.02,0,0.056-0.016,0.107-0.046c0.052-0.031,0.086-0.046,0.107-0.046c0.062-0.042,0.138-0.093,0.23-0.154
	c0.093-0.062,0.14-0.103,0.14-0.123c0.472-0.411,0.835-0.842,1.092-1.293c0.257-0.452,0.385-0.996,0.385-1.632
	c0-0.492-0.092-0.964-0.277-1.416c-0.184-0.452-0.44-0.847-0.77-1.187c-0.328-0.338-0.719-0.61-1.17-0.815
	c-0.453-0.205-0.934-0.309-1.447-0.309c-0.061,0-0.206,0.017-0.431,0.046C10.119,5.373,9.889,5.42,9.653,5.481
	c-0.237,0.062-0.446,0.138-0.632,0.23c-0.184,0.093-0.288,0.19-0.308,0.293c0,0.081,0.01,0.123,0.03,0.123
	C9.012,6.539,9.238,6.97,9.423,7.42c0.184,0.453,0.276,0.935,0.276,1.447v0.061L8.622,9.021c-0.021,0-0.042-0.041-0.063-0.123
	C8.539,8.817,8.518,8.72,8.498,8.606C8.478,8.493,8.457,8.39,8.437,8.299C8.417,8.206,8.396,8.14,8.375,8.098
	c0-0.041-0.021-0.128-0.062-0.262C8.272,7.704,8.241,7.616,8.221,7.575c-0.288-0.678-0.744-1.227-1.37-1.648
	C6.226,5.507,5.542,5.295,4.803,5.295c-0.514,0-0.989,0.104-1.432,0.309C2.931,5.81,2.545,6.081,2.218,6.419
	c-0.329,0.34-0.585,0.734-0.771,1.187C1.263,8.057,1.17,8.529,1.17,9.021z M4.157,4.127c0.656,0,1.287,0.066,1.894,0.199
	C6.656,4.46,7.225,4.722,7.759,5.111C7.923,5.05,8.078,4.969,8.221,4.865C8.365,4.763,8.53,4.681,8.714,4.619
	c0.411-0.185,0.842-0.313,1.294-0.385c0.45-0.073,0.922-0.107,1.416-0.107c0-0.125-0.032-0.252-0.093-0.386
	c-0.062-0.133-0.113-0.261-0.155-0.384C10.87,2.7,10.412,2.166,9.807,1.755C9.201,1.345,8.53,1.14,7.79,1.14
	c-0.759,0-1.436,0.205-2.032,0.615C5.163,2.166,4.71,2.7,4.404,3.356c-0.062,0.123-0.12,0.251-0.17,0.384
	C4.182,3.875,4.157,4.002,4.157,4.127z M5.79,18.844c0.102,0.103,0.236,0.154,0.399,0.154c0.226,0,0.339-0.134,0.339-0.401v-0.184
	L5.45,14.934c-0.041-0.103-0.098-0.169-0.169-0.2s-0.159-0.046-0.262-0.046c-0.103,0-0.195,0.036-0.277,0.108
	c-0.082,0.073-0.123,0.159-0.123,0.262v0.031c0,0.02,0.01,0.061,0.03,0.123c0.021,0.061,0.032,0.103,0.032,0.122
	c0.041,0.125,0.112,0.35,0.214,0.678c0.104,0.329,0.216,0.683,0.339,1.062c0.124,0.38,0.235,0.739,0.339,1.078
	C5.675,18.489,5.748,18.721,5.79,18.844z M7.082,17.828c0.082,0.185,0.226,0.277,0.432,0.277c0.267,0,0.399-0.143,0.399-0.431
	c0-0.02-0.011-0.052-0.03-0.093l-0.801-2.586c0-0.103-0.042-0.185-0.124-0.247H6.774c-0.124,0-0.237,0.026-0.338,0.078
	c-0.104,0.051-0.155,0.138-0.155,0.262v0.061c0,0.042,0.01,0.082,0.03,0.123c0.021,0.042,0.032,0.083,0.032,0.123
	c0.041,0.104,0.097,0.267,0.168,0.493c0.071,0.226,0.149,0.473,0.23,0.738c0.083,0.268,0.155,0.514,0.216,0.739
	C7.021,17.592,7.061,17.747,7.082,17.828z"/>
</svg>
