<?xml version="1.0" encoding="utf-8"?>
<!-- Generator: Adobe Illustrator 15.1.0, SVG Export Plug-In . SVG Version: 6.00 Build 0)  -->
<!DOCTYPE svg PUBLIC "-//W3C//DTD SVG 1.1//EN" "http://www.w3.org/Graphics/SVG/1.1/DTD/svg11.dtd">
<svg version="1.1" id="Layer_1" xmlns="http://www.w3.org/2000/svg" xmlns:xlink="http://www.w3.org/1999/xlink" x="0px" y="0px"
	 width="44.427px" height="20.865px" viewBox="0 0 44.427 20.865" enable-background="new 0 0 44.427 20.865" xml:space="preserve">
<g>
	<path d="M44.312,9.203c-0.077-0.076-0.166-0.19-0.269-0.346l-3.468-3.618H19.482c-1.028-1.645-2.339-2.926-3.93-3.851
		C13.961,0.465,12.218,0,10.317,0C8.829,0,7.455,0.286,6.198,0.85c-1.255,0.565-2.347,1.322-3.27,2.271
		C2.002,4.07,1.284,5.186,0.771,6.471C0.258,7.752,0,9.086,0,10.475v1.924c0.258,1.232,0.706,2.363,1.348,3.387
		c0.643,1.028,1.426,1.927,2.347,2.697c0.924,0.768,1.952,1.359,3.08,1.771c1.132,0.408,2.312,0.611,3.543,0.611
		c1.949,0,3.735-0.471,5.352-1.422c1.616-0.949,2.938-2.27,3.968-3.965h4.079l3.156-3.08l2.464,2.31l2.54-2.31l2.542,2.31
		l2.539-2.31l2.696,2.541l4.541-4.85c0.157-0.052,0.232-0.258,0.232-0.617C44.427,9.372,44.389,9.281,44.312,9.203z M7.776,12.244
		c-0.515,0.461-1.18,0.693-2.001,0.693c-0.771,0-1.426-0.232-1.964-0.693c-0.539-0.463-0.81-1.129-0.81-2.002
		c0-0.718,0.271-1.335,0.81-1.849c0.538-0.51,1.193-0.769,1.964-0.769c0.77,0,1.424,0.259,1.965,0.769
		c0.538,0.514,0.807,1.131,0.807,1.849C8.547,11.115,8.29,11.781,7.776,12.244z"/>
</g>
</svg>
