<?xml version="1.0" encoding="utf-8"?>
<!-- Generator: Adobe Illustrator 15.1.0, SVG Export Plug-In . SVG Version: 6.00 Build 0)  -->
<!DOCTYPE svg PUBLIC "-//W3C//DTD SVG 1.1//EN" "http://www.w3.org/Graphics/SVG/1.1/DTD/svg11.dtd">
<svg version="1.1" id="Layer_1" xmlns="http://www.w3.org/2000/svg" xmlns:xlink="http://www.w3.org/1999/xlink" x="0px" y="0px"
	 width="23.925px" height="30.452px" viewBox="0 0 23.925 30.452" enable-background="new 0 0 23.925 30.452" xml:space="preserve">
<path d="M0,9.762h23.925v20.69H0V9.762z M2.833,12.533v14.902h18.228V12.533H2.833z M3.233,4.958V4.774V4.373V4.188
	c0-0.555,0.103-1.088,0.309-1.601c0.205-0.514,0.493-0.96,0.862-1.34C4.773,0.869,5.209,0.566,5.712,0.34
	C6.214,0.115,6.764,0,7.359,0c0.76,0,1.457,0.186,2.093,0.555c0.637,0.37,1.16,0.882,1.572,1.54h8.435l1.386,1.447
	c0.041,0.062,0.077,0.107,0.107,0.138c0.031,0.031,0.047,0.068,0.047,0.108c0,0.144-0.031,0.227-0.094,0.247L19.09,5.975
	l-1.078-1.016l-1.016,0.923l-1.017-0.923l-1.016,0.923l-0.985-0.923L12.717,6.19h-1.631c-0.411,0.678-0.94,1.206-1.586,1.586
	c-0.646,0.38-1.36,0.568-2.14,0.568c-0.492,0-0.964-0.082-1.417-0.245C5.491,7.935,5.08,7.698,4.71,7.391
	C4.342,7.083,4.029,6.724,3.772,6.312C3.516,5.903,3.336,5.451,3.233,4.958z M4.434,4.096c0,0.35,0.108,0.616,0.323,0.801
	c0.216,0.184,0.478,0.277,0.786,0.277c0.328,0,0.594-0.093,0.8-0.277c0.206-0.185,0.308-0.451,0.308-0.801
	c0-0.287-0.107-0.534-0.322-0.739C6.112,3.153,5.85,3.049,5.543,3.049c-0.309,0-0.57,0.104-0.786,0.307
	C4.542,3.562,4.434,3.809,4.434,4.096z M7.236,15.981v9.606H5.727c-0.226,0-0.446-0.123-0.662-0.369
	c-0.215-0.247-0.324-0.483-0.324-0.708v-7.421c0-0.184,0.108-0.416,0.324-0.693c0.215-0.276,0.436-0.415,0.662-0.415H7.236z
	 M7.976,15.919h1.878l0.091-0.093v-1.569c0-0.082,0.078-0.184,0.231-0.309c0.155-0.122,0.273-0.184,0.354-0.184h2.832
	c0.104,0,0.232,0.072,0.387,0.215c0.152,0.144,0.229,0.268,0.229,0.37v1.57h1.91v9.729H7.976V15.919z M10.623,14.565v1.354h2.585
	v-1.354H10.623z M16.688,15.981h1.416c0.082,0,0.18,0.036,0.293,0.107c0.112,0.072,0.219,0.154,0.324,0.247
	c0.101,0.092,0.188,0.201,0.26,0.323c0.073,0.122,0.108,0.226,0.108,0.308v7.697c0,0.082-0.03,0.175-0.091,0.277
	c-0.062,0.103-0.141,0.201-0.232,0.292c-0.092,0.093-0.195,0.175-0.307,0.247c-0.115,0.072-0.213,0.107-0.293,0.107h-1.479V15.981z"
	/>
</svg>
