<?xml version="1.0" encoding="utf-8"?>
<!-- Generator: Adobe Illustrator 15.1.0, SVG Export Plug-In . SVG Version: 6.00 Build 0)  -->
<!DOCTYPE svg PUBLIC "-//W3C//DTD SVG 1.1//EN" "http://www.w3.org/Graphics/SVG/1.1/DTD/svg11.dtd">
<svg version="1.1" id="Layer_1" xmlns="http://www.w3.org/2000/svg" xmlns:xlink="http://www.w3.org/1999/xlink" x="0px" y="0px"
	 width="30.31px" height="33.134px" viewBox="0 0 30.31 33.134" enable-background="new 0 0 30.31 33.134" xml:space="preserve">
<path d="M0,10.662V1.816h6.594c0.179,0,0.387,0.105,0.622,0.318s0.354,0.42,0.354,0.623v6.997c0,0.269-0.067,0.477-0.202,0.622
	c-0.135,0.146-0.298,0.258-0.487,0.336c-0.19,0.08-0.398,0.135-0.623,0.168c-0.225,0.035-0.426,0.051-0.605,0.051v2.759
	c0,0.179-0.096,0.314-0.286,0.403c-0.189,0.091-0.342,0.135-0.454,0.135H4.676c-0.067,0-0.146-0.033-0.235-0.1L0,10.662z
	 M14.634,16.55l-0.303,0.27l-4.271,5.65c-0.114,0.113-0.259,0.219-0.438,0.32c-0.179,0.102-0.325,0.174-0.437,0.219H8.848H8.612
	c-0.314,0-0.577-0.028-0.791-0.085c-0.214-0.056-0.442-0.174-0.689-0.353l-6.223-4.878c-0.315-0.246-0.534-0.499-0.656-0.756
	c-0.124-0.26-0.186-0.567-0.186-0.926c0-0.583,0.208-1.06,0.622-1.43c0.415-0.37,0.892-0.555,1.431-0.555
	c0.447,0,0.841,0.123,1.177,0.369l4.542,3.566c0.044,0.022,0.122,0.078,0.235,0.168c0.022,0,0.055-0.021,0.101-0.067
	c0.045-0.045,0.079-0.078,0.101-0.101l3.297-4.34c0.179-0.291,0.476-0.594,0.892-0.908c0.415-0.314,0.801-0.472,1.161-0.472h11.134
	l-9.822,13.086l-0.303,0.27V16.55z M1.682,2.656l3.298,2.423c0.044,0.045,0.118,0.118,0.218,0.218
	c0.102,0.102,0.174,0.174,0.219,0.219s0.096,0.112,0.152,0.203c0.055,0.088,0.083,0.145,0.083,0.166v4.139
	c0.046,0,0.157-0.006,0.337-0.017S6.28,9.99,6.325,9.99c0.044,0,0.11-0.039,0.201-0.117C6.615,9.793,6.66,9.732,6.66,9.688V3.025
	c0-0.066-0.038-0.145-0.117-0.234c-0.078-0.09-0.15-0.135-0.218-0.135H1.682z M16.181,3.025L14.062,0h11.202v3.025H16.181z
	 M16.651,6.492l-0.1-0.135H14.6l0.102-0.236c0.201-0.269,0.369-0.493,0.505-0.672c0.134-0.18,0.273-0.359,0.42-0.539
	c0.146-0.179,0.263-0.336,0.354-0.471c0.067-0.045,0.145-0.106,0.235-0.185c0.089-0.079,0.145-0.119,0.168-0.119h8.881v2.827
	c0,0.268-0.072,0.555-0.219,0.857s-0.286,0.578-0.42,0.824c-0.382,0.65-0.92,1.148-1.615,1.496c-0.695,0.35-1.402,0.521-2.119,0.521
	c-0.605,0-1.161-0.111-1.664-0.336c-0.506-0.224-0.943-0.521-1.313-0.892c-0.369-0.37-0.668-0.808-0.891-1.312
	C16.798,7.618,16.675,7.074,16.651,6.492z M14.701,28.458h11.336v-2.287H17.09l10.191-13.792l0.102-0.136h0.235
	c0.808,0,1.458,0.299,1.952,0.893c0.493,0.595,0.739,1.284,0.739,2.068v17.93H14.701V28.458z"/>
</svg>
