<?xml version="1.0" encoding="utf-8"?>
<!-- Generator: Adobe Illustrator 15.1.0, SVG Export Plug-In . SVG Version: 6.00 Build 0)  -->
<!DOCTYPE svg PUBLIC "-//W3C//DTD SVG 1.1//EN" "http://www.w3.org/Graphics/SVG/1.1/DTD/svg11.dtd">
<svg version="1.1" id="Layer_1" xmlns="http://www.w3.org/2000/svg" xmlns:xlink="http://www.w3.org/1999/xlink" x="0px" y="0px"
	 width="36.97px" height="31.722px" viewBox="0 0 36.97 31.722" enable-background="new 0 0 36.97 31.722" xml:space="preserve">
<path d="M4.509,11.537v15.509H1.615c-0.134,0-0.297-0.034-0.487-0.101c-0.192-0.068-0.371-0.162-0.54-0.287
	c-0.167-0.123-0.308-0.257-0.42-0.403C0.056,26.109,0,25.957,0,25.802V12.716c0-0.091,0.045-0.208,0.135-0.353
	c0.089-0.146,0.201-0.275,0.335-0.389c0.135-0.111,0.275-0.213,0.421-0.302c0.146-0.091,0.274-0.136,0.386-0.136H4.509z
	 M4.608,27.146h15.34v3.028c0,0.335-0.157,0.678-0.471,1.025c-0.315,0.348-0.639,0.521-0.976,0.521H6.021
	c-0.313,0-0.627-0.146-0.941-0.437c-0.313-0.291-0.471-0.594-0.471-0.908V27.146z M10.697,24.523v-0.102v-0.27v-0.067
	c0.023-0.044,0.072-0.155,0.152-0.337c0.078-0.178,0.14-0.289,0.185-0.335l8.41-10.933c0.203-0.27,0.493-0.494,0.875-0.674
	s0.741-0.27,1.077-0.27h10.395L22,24.422v-8.713l-0.302,0.236L14.331,25.7c-0.224,0.315-0.449,0.532-0.673,0.655
	s-0.516,0.186-0.875,0.186c-0.628,0-1.132-0.173-1.514-0.521C10.887,25.673,10.697,25.174,10.697,24.523z M23.447,2.993L21.396,0
	h10.663v2.993H23.447z M21.899,6.155V6.021l1.615-2.02h8.68c0,0.562,0,1.066,0,1.514c0,0.449-0.045,0.932-0.136,1.447
	c-0.179,0.986-0.667,1.772-1.463,2.354c-0.796,0.585-1.677,0.875-2.64,0.875c-1.211,0-2.142-0.335-2.792-1.008
	s-1.099-1.582-1.346-2.727c0-0.043-0.005-0.105-0.016-0.184c-0.012-0.078-0.029-0.118-0.051-0.118H21.899z M22.068,27.113H32.9
	v-2.221h-8.545l9.755-13.188c0.09-0.111,0.158-0.168,0.203-0.168h0.168c0.268,0,0.549,0.068,0.84,0.203
	c0.292,0.134,0.56,0.308,0.808,0.521c0.247,0.213,0.448,0.459,0.605,0.738c0.158,0.283,0.235,0.557,0.235,0.826v17.896H22.068
	V27.113z"/>
</svg>
