<?xml version="1.0" encoding="utf-8"?>
<!-- Generator: Adobe Illustrator 15.1.0, SVG Export Plug-In . SVG Version: 6.00 Build 0)  -->
<!DOCTYPE svg PUBLIC "-//W3C//DTD SVG 1.1//EN" "http://www.w3.org/Graphics/SVG/1.1/DTD/svg11.dtd">
<svg version="1.1" id="Layer_1" xmlns="http://www.w3.org/2000/svg" xmlns:xlink="http://www.w3.org/1999/xlink" x="0px" y="0px"
	 width="22.058px" height="26.995px" viewBox="0 0 22.058 26.995" enable-background="new 0 0 22.058 26.995" xml:space="preserve">
<path d="M21.373,8.127l-5.509-5.094v1.643l2.484,2.593l-0.181,3.077c0,1.093,0.888,1.979,1.981,1.979l0.499,0.014l0.008,11.377
	c0,0.688-0.747,1.221-1.393,1.221c-0.651,0-1.396-0.532-1.396-1.221V16.83c0-1.252-0.989-2.268-2.236-2.292V1.684
	C15.632,0.758,14.875,0,13.949,0H1.684C0.757,0,0,0.758,0,1.684v23.629c0,0.927,0.757,1.683,1.684,1.683h12.266
	c0.926,0,1.683-0.756,1.683-1.683v-9.311c0.463,0.013,0.836,0.389,0.836,0.856v6.857c0,1.396,1.304,2.617,2.793,2.617h0.006
	c1.486,0,2.791-1.222,2.791-2.617V12.373c0,0,0-1.715,0-2.25C22.056,9.205,21.789,8.546,21.373,8.127z M12.023,11.146H3.606
	c-0.931,0-1.684-0.754-1.684-1.684V3.779c0-0.931,0.753-1.684,1.684-1.684h8.417c0.931,0,1.685,0.754,1.685,1.684v5.684
	C13.708,10.393,12.953,11.146,12.023,11.146z M20.75,11.279c-1.159,0-1.529-0.484-1.529-0.983V7.91l0.922,0.846
	c0,0,0.606,0.394,0.606,0.994C20.758,10.209,20.75,11.279,20.75,11.279z"/>
</svg>
