<?xml version="1.0" encoding="utf-8"?>
<!-- Generator: Adobe Illustrator 15.1.0, SVG Export Plug-In . SVG Version: 6.00 Build 0)  -->
<!DOCTYPE svg PUBLIC "-//W3C//DTD SVG 1.1//EN" "http://www.w3.org/Graphics/SVG/1.1/DTD/svg11.dtd">
<svg version="1.1" id="Layer_1" xmlns="http://www.w3.org/2000/svg" xmlns:xlink="http://www.w3.org/1999/xlink" x="0px" y="0px"
	 width="17.975px" height="25.576px" viewBox="0 0 17.975 25.576" enable-background="new 0 0 17.975 25.576" xml:space="preserve">
<path d="M0,2.77c0-0.15,0.061-0.297,0.184-0.438C0.306,2.19,0.453,2.119,0.622,2.119h5.624l0.057-0.112
	c0.263-0.604,0.616-1.089,1.059-1.455C7.805,0.184,8.375,0,9.072,0c0.66,0,1.196,0.194,1.611,0.58
	c0.414,0.387,0.744,0.861,0.989,1.427l0.085,0.112h5.624c0.151,0,0.286,0.071,0.409,0.212c0.123,0.142,0.184,0.288,0.184,0.438
	c0,0.133-0.053,0.278-0.156,0.438c-0.104,0.16-0.24,0.241-0.41,0.241h-5.652l-0.085,0.084c-0.263,0.604-0.598,1.094-1.002,1.47
	C10.263,5.38,9.703,5.568,8.987,5.568c-0.715,0-1.277-0.188-1.681-0.566C6.9,4.626,6.566,4.136,6.303,3.532
	c-0.02-0.018-0.039-0.046-0.057-0.084h-5.68c-0.151,0-0.283-0.081-0.396-0.241C0.057,3.048,0,2.902,0,2.77z M11.417,22.298v-2.033
	c0-0.038-0.028-0.138-0.085-0.298c-0.055-0.16-0.103-0.287-0.141-0.381c-0.169-0.452-0.461-0.749-0.875-0.891
	c-0.415-0.141-0.839-0.213-1.272-0.213c-0.641,0-1.13,0.099-1.469,0.296c-0.34,0.2-0.58,0.468-0.722,0.808
	c-0.141,0.339-0.222,0.739-0.24,1.199c-0.018,0.463-0.028,0.957-0.028,1.485H6.472H6.218H6.105c-0.604,0-1.141-0.133-1.611-0.396
	c-0.472-0.265-0.838-0.697-1.103-1.301c-0.039-0.075-0.075-0.184-0.113-0.325c-0.038-0.141-0.056-0.259-0.056-0.353V8.677
	c0-0.265,0.064-0.537,0.197-0.819C3.551,7.573,3.726,7.32,3.943,7.094c0.216-0.226,0.462-0.415,0.735-0.564
	c0.272-0.15,0.55-0.228,0.833-0.228h7.008c0.283,0,0.561,0.077,0.833,0.228c0.274,0.149,0.515,0.343,0.721,0.58
	c0.207,0.234,0.377,0.494,0.509,0.775c0.131,0.282,0.198,0.547,0.198,0.792v11.22c0,0.282-0.062,0.547-0.184,0.791
	c-0.123,0.244-0.278,0.471-0.467,0.678c-0.188,0.208-0.4,0.388-0.636,0.537c-0.236,0.151-0.476,0.265-0.72,0.34
	c-0.209,0.038-0.434,0.056-0.679,0.056C11.852,22.298,11.625,22.298,11.417,22.298z M4.465,10.711c0,0.265,0.072,0.443,0.213,0.537
	c0.142,0.095,0.333,0.142,0.578,0.142c0.171,0,0.33-0.056,0.48-0.17c0.151-0.113,0.227-0.282,0.227-0.509
	c0-0.206-0.085-0.357-0.254-0.452c-0.17-0.094-0.349-0.142-0.537-0.142C4.701,10.117,4.465,10.316,4.465,10.711z M7.206,2.77
	c0,0.51,0.174,0.932,0.524,1.271C8.079,4.381,8.497,4.55,8.987,4.55c0.509,0,0.942-0.169,1.3-0.509s0.538-0.762,0.538-1.271
	c0-0.508-0.18-0.933-0.538-1.272C9.929,1.158,9.496,0.99,8.987,0.99c-0.49,0-0.908,0.168-1.257,0.507
	C7.38,1.837,7.206,2.262,7.206,2.77z M8.987,19.218c0.321,0,0.595,0.033,0.82,0.099c0.227,0.066,0.434,0.231,0.623,0.495
	c0.018,0.019,0.056,0.085,0.112,0.198c0.057,0.112,0.085,0.197,0.085,0.255v4.351c0,0.188-0.109,0.396-0.326,0.622
	c-0.216,0.227-0.419,0.339-0.607,0.339H8.366c-0.208,0-0.429-0.121-0.665-0.366c-0.236-0.245-0.353-0.481-0.353-0.708v-4.068
	c0-0.435,0.179-0.745,0.537-0.934C8.243,19.313,8.611,19.218,8.987,19.218z M12.012,10.711c0,0.227,0.08,0.396,0.239,0.509
	c0.16,0.114,0.335,0.17,0.524,0.17c0.207,0,0.385-0.047,0.537-0.142c0.15-0.094,0.226-0.272,0.226-0.537
	c0-0.188-0.07-0.335-0.212-0.438c-0.142-0.104-0.316-0.156-0.523-0.156c-0.207,0-0.392,0.048-0.552,0.142
	C12.092,10.354,12.012,10.505,12.012,10.711z"/>
</svg>
