<?xml version="1.0" encoding="utf-8"?>
<!-- Generator: Adobe Illustrator 15.1.0, SVG Export Plug-In . SVG Version: 6.00 Build 0)  -->
<!DOCTYPE svg PUBLIC "-//W3C//DTD SVG 1.1//EN" "http://www.w3.org/Graphics/SVG/1.1/DTD/svg11.dtd">
<svg version="1.1" id="Layer_1" xmlns="http://www.w3.org/2000/svg" xmlns:xlink="http://www.w3.org/1999/xlink" x="0px" y="0px"
	 width="26.233px" height="27.372px" viewBox="0 0 26.233 27.372" enable-background="new 0 0 26.233 27.372" xml:space="preserve">
<path d="M3.08,22.507c-0.288,0-0.554,0.042-0.801,0.124c-0.247,0.082-0.492,0.179-0.738,0.291c-0.246,0.114-0.498,0.212-0.755,0.293
	C0.528,23.296,0.268,23.338,0,23.338v-2.524c0.103-0.041,0.174-0.061,0.216-0.061c0.164-0.042,0.308-0.062,0.431-0.062
	c0.145,0,0.298-0.041,0.463-0.124c0.369-0.143,0.717-0.287,1.048-0.431c0.327-0.143,0.686-0.216,1.076-0.216
	c0.452,0,0.851,0.088,1.201,0.263c0.349,0.174,0.729,0.303,1.14,0.384h0.399v-6.064l-1.878-4.279
	c-0.041-0.083-0.067-0.149-0.078-0.201c-0.01-0.051-0.015-0.128-0.015-0.23c0-0.226,0.066-0.421,0.201-0.585
	C4.336,9.042,4.506,8.903,4.71,8.79c0.206-0.113,0.416-0.211,0.632-0.293c0.215-0.082,0.416-0.152,0.6-0.216V4.525h2.187V2.554
	h3.079V0h3.817v2.554h3.049v1.972h2.217v3.726c0,0.042,0.097,0.094,0.292,0.154c0.195,0.062,0.416,0.144,0.662,0.246
	c0.246,0.104,0.467,0.246,0.662,0.431C22.103,9.268,22.2,9.493,22.2,9.76c0,0.123,0,0.216,0,0.276c0,0.062-0.021,0.145-0.062,0.247
	l-1.878,4.279v6.004c0.494,0,0.956-0.107,1.386-0.322c0.431-0.217,0.893-0.324,1.385-0.324c0.286,0,0.565,0.042,0.832,0.123
	c0.266,0.083,0.524,0.171,0.77,0.262c0.247,0.093,0.502,0.186,0.771,0.278c0.266,0.092,0.542,0.148,0.83,0.17v2.585
	c-0.266,0-0.528-0.042-0.785-0.123c-0.257-0.081-0.513-0.179-0.77-0.293c-0.256-0.112-0.514-0.209-0.77-0.291
	c-0.256-0.082-0.528-0.124-0.817-0.124c-0.307,0-0.595,0.046-0.862,0.138c-0.266,0.093-0.534,0.196-0.801,0.309
	c-0.266,0.112-0.543,0.216-0.831,0.309c-0.289,0.091-0.585,0.138-0.893,0.138c-0.309,0-0.595-0.047-0.862-0.138
	c-0.267-0.093-0.535-0.196-0.801-0.309c-0.267-0.112-0.535-0.216-0.801-0.309c-0.267-0.092-0.543-0.138-0.832-0.138
	c-0.288,0-0.565,0.042-0.831,0.124c-0.267,0.082-0.529,0.179-0.786,0.291c-0.257,0.114-0.519,0.212-0.786,0.293
	c-0.267,0.081-0.543,0.123-0.831,0.123c-0.308,0-0.596-0.042-0.862-0.123c-0.267-0.081-0.535-0.179-0.8-0.293
	c-0.267-0.112-0.528-0.209-0.786-0.291c-0.256-0.082-0.538-0.124-0.847-0.124c-0.308,0-0.594,0.046-0.862,0.138
	c-0.266,0.093-0.534,0.196-0.801,0.309c-0.266,0.112-0.533,0.216-0.8,0.309c-0.268,0.091-0.553,0.138-0.863,0.138
	c-0.307,0-0.599-0.047-0.876-0.138c-0.279-0.093-0.556-0.196-0.832-0.309c-0.277-0.112-0.561-0.216-0.847-0.309
	C3.716,22.553,3.408,22.507,3.08,22.507z M3.233,26.479c-0.308,0-0.59,0.041-0.847,0.122c-0.256,0.082-0.514,0.181-0.77,0.293
	c-0.256,0.113-0.513,0.21-0.771,0.293C0.59,27.27,0.309,27.31,0,27.31v-2.586l0.032-0.093c0.204,0,0.421-0.016,0.647-0.047
	c0.225-0.029,0.42-0.086,0.584-0.169c0.349-0.164,0.656-0.307,0.923-0.431c0.267-0.122,0.575-0.184,0.923-0.184
	c0.247,0,0.487,0.035,0.724,0.106c0.236,0.072,0.463,0.155,0.677,0.246c0.216,0.093,0.431,0.187,0.647,0.278
	c0.214,0.092,0.445,0.159,0.692,0.199c0.142,0.021,0.246,0.031,0.309,0.031h0.338c0.266,0,0.523-0.016,0.769-0.047
	c0.248-0.031,0.494-0.097,0.74-0.2c0.328-0.122,0.616-0.245,0.861-0.369c0.247-0.123,0.543-0.184,0.894-0.184
	c0.308,0,0.599,0.045,0.876,0.139c0.279,0.091,0.549,0.189,0.817,0.292c0.267,0.103,0.539,0.2,0.816,0.291
	c0.276,0.094,0.559,0.14,0.847,0.14c0.288,0,0.568-0.046,0.847-0.14c0.277-0.091,0.549-0.188,0.815-0.291
	c0.267-0.103,0.539-0.201,0.816-0.292c0.276-0.094,0.569-0.139,0.877-0.139c0.37,0,0.697,0.061,0.986,0.184
	c0.287,0.124,0.605,0.257,0.955,0.4c0.226,0.104,0.446,0.165,0.662,0.185c0.215,0.021,0.436,0.031,0.662,0.031h0.339
	c0.081,0,0.143-0.005,0.184-0.016c0.042-0.01,0.083-0.016,0.124-0.016c0.493-0.101,0.958-0.266,1.401-0.492
	c0.44-0.226,0.909-0.338,1.4-0.338c0.37,0,0.698,0.081,0.985,0.245c0.288,0.166,0.606,0.298,0.955,0.4
	c0.144,0.062,0.333,0.108,0.57,0.138c0.235,0.031,0.416,0.047,0.538,0.047v2.648c-0.348,0-0.65-0.041-0.908-0.122
	c-0.257-0.084-0.508-0.175-0.754-0.278c-0.247-0.102-0.492-0.195-0.738-0.277c-0.247-0.081-0.535-0.122-0.863-0.122
	c-0.289,0-0.565,0.045-0.832,0.138c-0.267,0.092-0.534,0.194-0.801,0.308c-0.267,0.113-0.533,0.216-0.799,0.308
	c-0.268,0.094-0.554,0.14-0.863,0.14c-0.286,0-0.563-0.046-0.83-0.14c-0.267-0.092-0.524-0.194-0.771-0.308
	s-0.502-0.216-0.771-0.308c-0.266-0.093-0.543-0.138-0.831-0.138c-0.308,0-0.595,0.041-0.862,0.122
	c-0.267,0.082-0.535,0.176-0.801,0.277c-0.267,0.104-0.534,0.194-0.801,0.278c-0.267,0.081-0.543,0.122-0.831,0.122
	c-0.308,0-0.607-0.041-0.893-0.122c-0.288-0.084-0.57-0.181-0.847-0.294c-0.277-0.112-0.554-0.211-0.831-0.292
	c-0.277-0.082-0.57-0.123-0.878-0.123c-0.286,0-0.553,0.045-0.801,0.139c-0.245,0.093-0.492,0.195-0.737,0.308
	c-0.247,0.113-0.503,0.216-0.771,0.307c-0.268,0.093-0.544,0.14-0.831,0.14c-0.308,0-0.602-0.047-0.878-0.14
	c-0.276-0.091-0.549-0.188-0.816-0.291c-0.266-0.103-0.533-0.201-0.8-0.293C3.829,26.524,3.542,26.479,3.233,26.479z M7.606,6.065
	v1.479l5.234-2.125c0.102-0.042,0.195-0.062,0.277-0.062c0.082,0,0.165,0.02,0.246,0.062l4.958,2.062
	c0.102,0.042,0.215,0.063,0.338,0.063V6.065h-2.186V4.188H9.729v1.878H7.606z"/>
</svg>
