<?xml version="1.0" encoding="utf-8"?>
<!-- Generator: Adobe Illustrator 15.1.0, SVG Export Plug-In . SVG Version: 6.00 Build 0)  -->
<!DOCTYPE svg PUBLIC "-//W3C//DTD SVG 1.1//EN" "http://www.w3.org/Graphics/SVG/1.1/DTD/svg11.dtd">
<svg version="1.1" id="Layer_1" xmlns="http://www.w3.org/2000/svg" xmlns:xlink="http://www.w3.org/1999/xlink" x="0px" y="0px"
	 width="26.407px" height="26.516px" viewBox="0 0 26.407 26.516" enable-background="new 0 0 26.407 26.516" xml:space="preserve">
<path d="M22.001,21.642H6.09v-5.623L1.71,2.414C1.658,2.38,1.56,2.307,1.412,2.194C1.265,2.081,1.114,1.965,0.958,1.844
	c-0.155-0.12-0.302-0.237-0.44-0.351C0.38,1.382,0.284,1.3,0.232,1.248C0.075,1.109,0,0.997,0,0.91V0.729c0-0.034,0-0.095,0-0.182
	c0-0.086,0.009-0.129,0.024-0.129C0.06,0.333,0.128,0.237,0.232,0.133C0.337,0.03,0.405-0.014,0.44,0.004l0.207,0.104
	c0.018,0,0.1,0.057,0.247,0.168c0.146,0.112,0.323,0.247,0.53,0.401c0.207,0.157,0.414,0.32,0.623,0.493
	c0.207,0.173,0.38,0.311,0.517,0.415c0.087,0.068,0.152,0.129,0.194,0.181c0.044,0.053,0.082,0.13,0.117,0.233l1.271,3.965
	l22.261,1.244l-2.669,9.199H7.308v4.095h14.693V21.642z M24.722,8.349c-0.448-0.068-0.902-0.113-1.36-0.129
	c-0.457-0.018-0.91-0.027-1.36-0.027v1.736h2.308c0.018,0,0.033-0.029,0.051-0.09s0.034-0.107,0.052-0.143
	c0.018-0.053,0.043-0.133,0.077-0.247c0.035-0.112,0.07-0.228,0.104-0.349s0.064-0.234,0.09-0.338
	c0.027-0.103,0.039-0.182,0.039-0.232V8.452V8.349z M22.001,10.758v1.687h1.581c0.052-0.104,0.086-0.174,0.104-0.209
	c0.018-0.052,0.049-0.146,0.091-0.285c0.043-0.138,0.081-0.284,0.117-0.439c0.035-0.156,0.073-0.308,0.116-0.454
	c0.043-0.147,0.073-0.246,0.09-0.299H22.001z M22.001,13.298v1.892h0.83l0.543-1.892H22.001z M21.6,25.945
	c-0.406,0.379-0.902,0.57-1.489,0.57c-0.605,0-1.099-0.2-1.478-0.597c-0.38-0.396-0.57-0.898-0.57-1.503
	c0-0.536,0.198-0.993,0.596-1.374c0.398-0.379,0.872-0.569,1.425-0.569c0.588,0,1.089,0.186,1.504,0.557
	c0.414,0.372,0.622,0.851,0.622,1.438C22.209,25.073,22.006,25.565,21.6,25.945z M20.849,8.09c-0.147-0.019-0.298-0.03-0.454-0.04
	c-0.155-0.008-0.302-0.016-0.441-0.025c-0.139-0.008-0.233-0.014-0.284-0.014c-0.034,0-0.091-0.004-0.169-0.012
	c-0.077-0.008-0.124-0.013-0.142-0.013v1.942h1.788V8.116C21.094,8.116,20.996,8.106,20.849,8.09z M19.358,10.758v1.687h1.788
	v-1.687H19.358z M19.358,13.298v1.892h1.788v-1.892H19.358z M16.585,9.929h1.814V8.011c0-0.017-0.082-0.039-0.247-0.064
	c-0.163-0.026-0.289-0.039-0.375-0.039c-0.104,0-0.303-0.004-0.596-0.012c-0.295-0.01-0.493-0.014-0.597-0.014V9.929z
	 M16.585,10.758v1.687h1.814v-1.687H16.585z M16.585,13.298v1.892h1.814v-1.892H16.585z M13.942,7.805v2.124h1.813V7.805H13.942z
	 M13.942,10.758v1.687h1.813v-1.687H13.942z M13.942,13.298v1.892h1.813v-1.892H13.942z M11.221,7.597v2.332h1.788V7.675
	C12.421,7.623,11.826,7.597,11.221,7.597z M11.221,10.758v1.687h1.788v-1.687H11.221z M11.221,13.298v1.892h1.788v-1.892H11.221z
	 M8.577,9.929h1.814V7.597c0-0.016-0.043-0.034-0.129-0.053c-0.088-0.016-0.156-0.033-0.208-0.051c-0.053,0-0.147-0.004-0.285-0.012
	c-0.138-0.01-0.285-0.014-0.441-0.014c-0.154,0-0.307-0.004-0.453-0.014C8.729,7.446,8.63,7.442,8.577,7.442V9.929z M8.577,10.758
	v1.687h1.814v-1.687H8.577z M8.577,13.298v1.892h1.814v-1.892H8.577z M10.106,25.335c-0.121,0.234-0.281,0.441-0.479,0.622
	c-0.198,0.182-0.428,0.321-0.688,0.415c-0.259,0.096-0.526,0.144-0.803,0.144c-0.259,0-0.515-0.053-0.764-0.156
	c-0.251-0.104-0.476-0.241-0.673-0.414c-0.2-0.174-0.36-0.38-0.48-0.622c-0.121-0.242-0.183-0.502-0.183-0.777
	c0-0.276,0.062-0.544,0.183-0.804c0.12-0.26,0.275-0.479,0.466-0.661s0.411-0.328,0.66-0.44c0.251-0.112,0.515-0.168,0.791-0.168
	c0.588,0,1.094,0.202,1.517,0.608s0.634,0.895,0.634,1.465C10.287,24.84,10.228,25.103,10.106,25.335z M6.504,7.274
	C6.21,7.265,5.848,7.261,5.416,7.261H5.261c-0.087,0-0.177,0.004-0.271,0.014C4.895,7.282,4.803,7.286,4.717,7.286h-0.13
	l0.829,2.643h2.202V7.39C7.169,7.321,6.798,7.282,6.504,7.274z M5.7,10.758c0,0.019,0.009,0.053,0.025,0.104
	c0.019,0.053,0.044,0.143,0.078,0.273c0.035,0.129,0.078,0.267,0.131,0.413c0.052,0.146,0.099,0.285,0.143,0.415
	c0.043,0.129,0.073,0.22,0.09,0.271c0.018,0.035,0.035,0.078,0.053,0.13c0.017,0.052,0.034,0.079,0.051,0.079h1.348v-1.687H5.7z
	 M6.555,13.298c0,0.191,0.045,0.398,0.131,0.623c0.035,0.12,0.088,0.289,0.155,0.504c0.069,0.217,0.13,0.395,0.182,0.532
	s0.079,0.216,0.079,0.232h0.517v-1.892H6.555z"/>
</svg>
