<?xml version="1.0" encoding="utf-8"?>
<!-- Generator: Adobe Illustrator 15.1.0, SVG Export Plug-In . SVG Version: 6.00 Build 0)  -->
<!DOCTYPE svg PUBLIC "-//W3C//DTD SVG 1.1//EN" "http://www.w3.org/Graphics/SVG/1.1/DTD/svg11.dtd">
<svg version="1.1" id="Layer_1" xmlns="http://www.w3.org/2000/svg" xmlns:xlink="http://www.w3.org/1999/xlink" x="0px" y="0px"
	 width="25.31px" height="27.584px" viewBox="0 0 25.31 27.584" enable-background="new 0 0 25.31 27.584" xml:space="preserve">
<g>
	<path d="M23.941,10.338h-1.229c-0.736-4.331-4.184-7.739-8.535-8.412V1.367C14.177,0.611,13.563,0,12.81,0h-0.425
		c-0.755,0-1.366,0.612-1.366,1.367v0.559c-4.354,0.673-7.8,4.081-8.536,8.412H1.366C0.61,10.338,0,10.951,0,11.704v0.463
		c0,0.755,0.611,1.366,1.366,1.366h22.576c0.754,0,1.367-0.611,1.367-1.366v-0.463C25.308,10.951,24.695,10.338,23.941,10.338z"/>
	<path d="M4.159,16.475c0,0.237-0.194,0.432-0.432,0.432c-0.238,0-0.432-0.194-0.432-0.432v-1.619c0-0.238,0.193-0.431,0.432-0.431
		c0.237,0,0.432,0.192,0.432,0.431V16.475z"/>
	<path d="M7.134,16.475c0,0.237-0.193,0.432-0.432,0.432c-0.237,0-0.432-0.194-0.432-0.432v-1.619c0-0.238,0.192-0.431,0.432-0.431
		c0.238,0,0.432,0.192,0.432,0.431V16.475z"/>
	<path d="M10.109,16.475c0,0.237-0.193,0.432-0.432,0.432c-0.237,0-0.432-0.194-0.432-0.432v-1.619c0-0.238,0.193-0.431,0.432-0.431
		s0.432,0.192,0.432,0.431V16.475z"/>
	<path d="M13.085,16.475c0,0.237-0.194,0.432-0.432,0.432c-0.238,0-0.432-0.194-0.432-0.432v-1.619c0-0.238,0.193-0.431,0.432-0.431
		c0.237,0,0.432,0.192,0.432,0.431V16.475z"/>
	<path d="M16.06,16.475c0,0.237-0.193,0.432-0.431,0.432c-0.238,0-0.432-0.194-0.432-0.432v-1.619c0-0.238,0.192-0.431,0.432-0.431
		c0.237,0,0.431,0.192,0.431,0.431V16.475z"/>
	<path d="M19.035,16.475c0,0.237-0.193,0.432-0.432,0.432s-0.433-0.194-0.433-0.432v-1.619c0-0.238,0.194-0.431,0.433-0.431
		s0.432,0.192,0.432,0.431V16.475z"/>
	<path d="M22.012,16.475c0,0.237-0.194,0.432-0.432,0.432c-0.239,0-0.432-0.194-0.432-0.432v-1.619c0-0.238,0.192-0.431,0.432-0.431
		c0.237,0,0.432,0.192,0.432,0.431V16.475z"/>
	<path d="M4.159,20.033c0,0.239-0.194,0.432-0.432,0.432c-0.238,0-0.432-0.192-0.432-0.432v-1.618c0-0.237,0.193-0.433,0.432-0.433
		c0.237,0,0.432,0.195,0.432,0.433V20.033z"/>
	<path d="M7.134,20.033c0,0.239-0.193,0.432-0.432,0.432c-0.237,0-0.432-0.192-0.432-0.432v-1.618c0-0.237,0.192-0.433,0.432-0.433
		c0.238,0,0.432,0.195,0.432,0.433V20.033z"/>
	<path d="M10.109,20.033c0,0.239-0.193,0.432-0.432,0.432c-0.237,0-0.432-0.192-0.432-0.432v-1.618c0-0.237,0.193-0.433,0.432-0.433
		s0.432,0.195,0.432,0.433V20.033z"/>
	<path d="M13.085,20.033c0,0.239-0.194,0.432-0.432,0.432c-0.238,0-0.432-0.192-0.432-0.432v-1.618c0-0.237,0.193-0.433,0.432-0.433
		c0.237,0,0.432,0.195,0.432,0.433V20.033z"/>
	<path d="M16.06,20.033c0,0.239-0.193,0.432-0.431,0.432c-0.238,0-0.432-0.192-0.432-0.432v-1.618c0-0.237,0.192-0.433,0.432-0.433
		c0.237,0,0.431,0.195,0.431,0.433V20.033z"/>
	<path d="M19.035,20.033c0,0.239-0.193,0.432-0.432,0.432s-0.433-0.192-0.433-0.432v-1.618c0-0.237,0.194-0.433,0.433-0.433
		s0.432,0.195,0.432,0.433V20.033z"/>
	<path d="M22.012,20.033c0,0.239-0.194,0.432-0.432,0.432c-0.239,0-0.432-0.192-0.432-0.432v-1.618c0-0.237,0.192-0.433,0.432-0.433
		c0.237,0,0.432,0.195,0.432,0.433V20.033z"/>
	<path d="M4.159,23.594c0,0.238-0.194,0.431-0.432,0.431c-0.238,0-0.432-0.192-0.432-0.431v-1.617c0-0.238,0.193-0.433,0.432-0.433
		c0.237,0,0.432,0.194,0.432,0.433V23.594z"/>
	<path d="M7.134,23.594c0,0.238-0.193,0.431-0.432,0.431c-0.237,0-0.432-0.192-0.432-0.431v-1.617c0-0.238,0.192-0.433,0.432-0.433
		c0.238,0,0.432,0.194,0.432,0.433V23.594z"/>
	<path d="M10.109,23.594c0,0.238-0.193,0.431-0.432,0.431c-0.237,0-0.432-0.192-0.432-0.431v-1.617c0-0.238,0.193-0.433,0.432-0.433
		s0.432,0.194,0.432,0.433V23.594z"/>
	<path d="M13.085,23.594c0,0.238-0.194,0.431-0.432,0.431c-0.238,0-0.432-0.192-0.432-0.431v-1.617c0-0.238,0.193-0.433,0.432-0.433
		c0.237,0,0.432,0.194,0.432,0.433V23.594z"/>
	<path d="M16.06,23.594c0,0.238-0.193,0.431-0.431,0.431c-0.238,0-0.432-0.192-0.432-0.431v-1.617c0-0.238,0.192-0.433,0.432-0.433
		c0.237,0,0.431,0.194,0.431,0.433V23.594z"/>
	<path d="M19.035,23.594c0,0.238-0.193,0.431-0.432,0.431s-0.433-0.192-0.433-0.431v-1.617c0-0.238,0.194-0.433,0.433-0.433
		s0.432,0.194,0.432,0.433V23.594z"/>
	<path d="M22.012,23.594c0,0.238-0.194,0.431-0.432,0.431c-0.239,0-0.432-0.192-0.432-0.431v-1.617c0-0.238,0.192-0.433,0.432-0.433
		c0.237,0,0.432,0.194,0.432,0.433V23.594z"/>
	<path d="M4.159,27.152c0,0.24-0.194,0.432-0.432,0.432c-0.238,0-0.432-0.191-0.432-0.432v-1.617c0-0.238,0.193-0.431,0.432-0.431
		c0.237,0,0.432,0.192,0.432,0.431V27.152z"/>
	<path d="M7.134,27.152c0,0.24-0.193,0.432-0.432,0.432c-0.237,0-0.432-0.191-0.432-0.432v-1.617c0-0.238,0.192-0.431,0.432-0.431
		c0.238,0,0.432,0.192,0.432,0.431V27.152z"/>
	<path d="M10.109,27.152c0,0.24-0.193,0.432-0.432,0.432c-0.237,0-0.432-0.191-0.432-0.432v-1.617c0-0.238,0.193-0.431,0.432-0.431
		s0.432,0.192,0.432,0.431V27.152z"/>
	<path d="M13.085,27.152c0,0.24-0.194,0.432-0.432,0.432c-0.238,0-0.432-0.191-0.432-0.432v-1.617c0-0.238,0.193-0.431,0.432-0.431
		c0.237,0,0.432,0.192,0.432,0.431V27.152z"/>
	<path d="M16.06,27.152c0,0.24-0.193,0.432-0.431,0.432c-0.238,0-0.432-0.191-0.432-0.432v-1.617c0-0.238,0.192-0.431,0.432-0.431
		c0.237,0,0.431,0.192,0.431,0.431V27.152z"/>
	<path d="M19.035,27.152c0,0.24-0.193,0.432-0.432,0.432s-0.433-0.191-0.433-0.432v-1.617c0-0.238,0.194-0.431,0.433-0.431
		s0.432,0.192,0.432,0.431V27.152z"/>
	<path d="M22.012,27.152c0,0.24-0.194,0.432-0.432,0.432c-0.239,0-0.432-0.191-0.432-0.432v-1.617c0-0.238,0.192-0.431,0.432-0.431
		c0.237,0,0.432,0.192,0.432,0.431V27.152z"/>
</g>
</svg>
