<?xml version="1.0" encoding="utf-8"?>
<!-- Generator: Adobe Illustrator 15.1.0, SVG Export Plug-In . SVG Version: 6.00 Build 0)  -->
<!DOCTYPE svg PUBLIC "-//W3C//DTD SVG 1.1//EN" "http://www.w3.org/Graphics/SVG/1.1/DTD/svg11.dtd">
<svg version="1.1" id="Layer_1" xmlns="http://www.w3.org/2000/svg" xmlns:xlink="http://www.w3.org/1999/xlink" x="0px" y="0px"
	 width="21.215px" height="27.557px" viewBox="0 0 21.215 27.557" enable-background="new 0 0 21.215 27.557" xml:space="preserve">
<path d="M0,14.933V2.679h1.479v1.786h0.862v8.621H1.479v1.847H0z M15.026,10.838H2.679v-4.28h3.572V4.003l0.093-0.062
	c0.041,0,0.077-0.004,0.108-0.014C6.483,3.917,6.519,3.912,6.56,3.912s0.112,0.01,0.215,0.029c0.103-0.348,0.23-0.619,0.385-0.814
	s0.364-0.405,0.632-0.633c0.062,0,0.093-0.02,0.093-0.061V1.386H4.835c-0.165,0-0.298-0.077-0.4-0.23
	C4.332,1.001,4.28,0.842,4.28,0.678c0-0.165,0.052-0.319,0.154-0.462C4.537,0.073,4.67,0,4.835,0h7.421
	c0.164,0,0.312,0.073,0.445,0.216c0.134,0.143,0.201,0.297,0.201,0.462c0,0.144-0.073,0.298-0.215,0.462
	c-0.145,0.164-0.289,0.246-0.432,0.246H9.27v0.955c0.307,0.266,0.533,0.502,0.677,0.708c0.144,0.204,0.266,0.503,0.369,0.892
	c0.021,0,0.052-0.004,0.093-0.014c0.041-0.011,0.081-0.016,0.122-0.016c0.042,0,0.078,0.005,0.108,0.016
	c0.031,0.01,0.066,0.014,0.107,0.014l0.093,0.062v2.617h4.25c0.431,0,0.851,0.092,1.262,0.277c0.411,0.185,0.773,0.437,1.094,0.755
	c0.316,0.317,0.574,0.683,0.769,1.093c0.195,0.41,0.292,0.842,0.292,1.292v2.372h-3.479V10.838z M12.748,18.075
	c0.04-0.452,0.021-0.903-0.061-1.354c-0.083-0.452-0.124-0.914-0.124-1.387h8.651c0,0.33-0.005,0.632-0.015,0.908
	c-0.012,0.279-0.057,0.52-0.14,0.725c-0.081,0.205-0.22,0.369-0.415,0.492c-0.194,0.123-0.487,0.195-0.877,0.216
	c0.02,0,0.071,0.005,0.153,0.015c0.081,0.012,0.143,0.017,0.185,0.017c0.39,0,0.729-0.175,1.016-0.524v0.77l-0.677,9.606h-7.021
	L12.748,18.075z M12.841,17.335c0,0.041,0.02,0.082,0.062,0.123h0.03h0.062l-0.153-0.247c0,0.021-0.012,0.042-0.031,0.063
	C12.81,17.294,12.819,17.316,12.841,17.335z M13.057,17.49c0.081,0.123,0.184,0.189,0.308,0.199
	c0.123,0.012,0.246,0.017,0.369,0.017c0.225,0,0.451-0.077,0.677-0.232c0.227-0.153,0.339-0.362,0.339-0.63V16.72
	c-0.103,0.246-0.23,0.456-0.385,0.631c-0.154,0.174-0.375,0.262-0.661,0.262c-0.104,0-0.2-0.02-0.294-0.062
	c-0.092-0.041-0.19-0.061-0.291-0.061H13.057z M14.811,16.996v0.031c0,0.062,0.011,0.084,0.031,0.062
	c0.021-0.02,0.031-0.041,0.031-0.062C14.853,17.007,14.832,16.996,14.811,16.996z M14.903,17.211h0.031
	c0.021,0.042,0.056,0.093,0.108,0.154c0.05,0.062,0.085,0.104,0.106,0.124c0.041,0.02,0.072,0.029,0.093,0.029V17.49l-0.308-0.309
	L14.903,17.211z M15.427,17.582c0-0.041-0.021-0.062-0.062-0.062c-0.021,0-0.031,0.021-0.031,0.062s0.011,0.062,0.031,0.062
	L15.427,17.582z M16.752,17.181c-0.228,0.206-0.407,0.334-0.539,0.385c-0.135,0.053-0.377,0.088-0.725,0.108
	c0.041,0,0.098,0.005,0.169,0.015c0.071,0.012,0.128,0.017,0.169,0.017c0.124,0,0.309-0.036,0.556-0.108
	c0.245-0.072,0.37-0.2,0.37-0.386V17.181z M16.936,16.72l-0.123,0.275c0.081-0.02,0.123-0.071,0.123-0.152V16.72z M17.027,16.996
	c-0.021-0.02-0.031-0.01-0.031,0.031c0,0.062,0.006,0.084,0.018,0.062c0.01-0.02,0.014-0.041,0.014-0.062V16.996z M17.09,17.181
	c-0.042,0-0.062,0.01-0.062,0.03c0,0.042,0.031,0.042,0.094,0C17.121,17.191,17.109,17.181,17.09,17.181z M17.183,17.211
	c-0.041,0-0.062,0.042-0.062,0.124s0.021,0.123,0.062,0.123c0.04,0,0.061-0.041,0.061-0.123S17.223,17.211,17.183,17.211z
	 M17.243,17.458c0.042,0,0.071,0.012,0.093,0.031c0.021,0.02,0.04,0.029,0.062,0.029l0.03-0.029c0-0.02-0.03-0.031-0.092-0.031
	l-0.031-0.031C17.285,17.449,17.264,17.458,17.243,17.458z M17.521,17.582l0.062,0.093c0.02,0.021,0.071,0.031,0.153,0.031
	s0.145,0,0.187,0c0.162,0,0.333-0.021,0.507-0.062s0.313-0.145,0.416-0.309c0.04-0.061,0.133-0.195,0.277-0.4l-0.123-0.092
	c-0.104,0.348-0.288,0.58-0.556,0.692C18.177,17.65,17.869,17.664,17.521,17.582z M19.183,17.181c0,0.083,0.021,0.139,0.062,0.17
	s0.113,0.076,0.216,0.139l0.031,0.029l0.031-0.029l-0.309-0.4c0,0.021-0.004,0.036-0.016,0.046
	C19.188,17.145,19.183,17.162,19.183,17.181z M19.707,17.582c0.041-0.041,0.021-0.062-0.062-0.062c-0.041,0-0.057,0.021-0.045,0.062
	c0.01,0.041,0.024,0.062,0.045,0.062C19.686,17.644,19.707,17.623,19.707,17.582z"/>
</svg>
