<?xml version="1.0" encoding="utf-8"?>
<!-- Generator: Adobe Illustrator 15.1.0, SVG Export Plug-In . SVG Version: 6.00 Build 0)  -->
<!DOCTYPE svg PUBLIC "-//W3C//DTD SVG 1.1//EN" "http://www.w3.org/Graphics/SVG/1.1/DTD/svg11.dtd">
<svg version="1.1" id="Layer_1" xmlns="http://www.w3.org/2000/svg" xmlns:xlink="http://www.w3.org/1999/xlink" x="0px" y="0px"
	 width="19.613px" height="29.526px" viewBox="0 0 19.613 29.526" enable-background="new 0 0 19.613 29.526" xml:space="preserve">
<path d="M0,29.526l4.219-6.404c0.02-0.04-0.098-0.103-0.354-0.184c-0.257-0.082-0.438-0.146-0.539-0.187
	c-0.206-0.122-0.416-0.281-0.632-0.477c-0.215-0.194-0.416-0.41-0.602-0.646c-0.184-0.235-0.338-0.487-0.46-0.755
	c-0.123-0.267-0.186-0.522-0.186-0.77V5.48c0-0.349,0.103-0.703,0.308-1.063c0.206-0.358,0.467-0.682,0.786-0.97
	C2.859,3.16,3.207,2.924,3.587,2.739c0.379-0.186,0.734-0.276,1.062-0.276h10.315c0.349,0,0.712,0.098,1.093,0.292
	c0.379,0.195,0.723,0.442,1.031,0.739c0.308,0.298,0.564,0.631,0.769,1.001c0.206,0.37,0.309,0.728,0.309,1.078v14.408
	c-0.062,0.288-0.103,0.474-0.123,0.555c-0.164,0.698-0.489,1.227-0.97,1.585c-0.482,0.359-1.022,0.663-1.618,0.908
	c0,0.021-0.01,0.036-0.03,0.047c-0.021,0.011-0.031,0.026-0.031,0.046c0.041,0.062,0.061,0.103,0.061,0.123l4.157,6.281H17.12
	l-3.079-4.465H5.543l-3.08,4.465H0z M4.71,12.284c0.042,0.021,0.103,0.041,0.186,0.062c0.082,0.02,0.133,0.03,0.154,0.03h9.453
	c0.184,0,0.37-0.04,0.554-0.124c0.184-0.08,0.358-0.189,0.524-0.322c0.164-0.134,0.297-0.287,0.399-0.462
	c0.103-0.176,0.154-0.354,0.154-0.539V7.666c0-0.184-0.046-0.359-0.138-0.523c-0.093-0.164-0.216-0.318-0.37-0.461
	c-0.154-0.146-0.324-0.258-0.509-0.34c-0.184-0.081-0.369-0.123-0.554-0.123H4.989c-0.206,0-0.406,0.052-0.602,0.154
	S4.023,6.608,3.88,6.772C3.736,6.938,3.618,7.117,3.525,7.312C3.434,7.507,3.388,7.707,3.388,7.913v2.801
	c0,0.37,0.133,0.708,0.399,1.016C4.054,12.039,4.362,12.223,4.71,12.284z M3.449,19.428c0,0.472,0.147,0.874,0.446,1.201
	c0.297,0.328,0.683,0.493,1.155,0.493c0.471,0,0.867-0.165,1.185-0.493c0.318-0.327,0.478-0.719,0.478-1.17
	c0-0.494-0.159-0.888-0.478-1.187c-0.318-0.297-0.714-0.446-1.185-0.446c-0.452,0-0.832,0.159-1.14,0.478
	C3.603,18.622,3.449,18.996,3.449,19.428z M7.667,5.387c0.02,0.021,0.061,0.053,0.123,0.094h3.971c0.083,0,0.174-0.041,0.278-0.124
	c0.102-0.081,0.153-0.173,0.153-0.277V3.57c0-0.082-0.062-0.164-0.184-0.245c-0.123-0.082-0.206-0.123-0.247-0.123h-3.94
	c-0.104,0-0.206,0.056-0.309,0.168C7.411,3.484,7.359,3.592,7.359,3.694v1.293c0,0.083,0.036,0.159,0.108,0.229
	C7.538,5.29,7.606,5.347,7.667,5.387z M7.391,0.984V0.8c0-0.041,0.004-0.077,0.015-0.107c0.011-0.031,0.016-0.056,0.016-0.077
	C7.543,0.307,7.749,0.103,8.037,0h0.184h0.154c0.308,0,0.563,0.088,0.769,0.262s0.308,0.415,0.308,0.723
	c0,0.288-0.103,0.528-0.308,0.724S8.684,2,8.375,2C8.087,2,7.852,1.903,7.667,1.708C7.482,1.513,7.391,1.272,7.391,0.984z
	 M10.161,0.954c0-0.473,0.215-0.791,0.646-0.954h0.186h0.154c0.309,0,0.563,0.088,0.77,0.262c0.206,0.174,0.308,0.415,0.308,0.723
	c0,0.288-0.103,0.528-0.308,0.724C11.71,1.903,11.455,2,11.146,2c-0.308,0-0.55-0.107-0.724-0.322
	C10.249,1.461,10.161,1.222,10.161,0.954z M12.809,19.428c0,0.472,0.159,0.874,0.478,1.201c0.318,0.328,0.713,0.493,1.185,0.493
	s0.862-0.165,1.17-0.493c0.309-0.327,0.463-0.729,0.463-1.201c0-0.432-0.149-0.806-0.448-1.124
	c-0.297-0.318-0.683-0.478-1.154-0.478c-0.452,0-0.847,0.149-1.187,0.446C12.978,18.571,12.809,18.955,12.809,19.428z"/>
</svg>
